# xmcd
#
# Track frame offsets: 
#        150
#        14241
#        31174
#        41962
#        62490
#        75068
#        84157
#        116938
#        136587
#        142972
#        165688
#
# Disc length: 2368 seconds
#
# Revision: 2
# Processed by: cddbd v1.5.2PL0 Copyright (c) Steve Scherf et al.
# Submitted via: ExactAudioCopy v0.99pb4
#
DISCID=83093e0b
DTITLE=Asobi Seksu - Asobi Seksu
DYEAR=2004
DGENRE=Pop
TTITLE0=I'm Happy But You Don't Like Me
TTITLE1=Sooner
TTITLE2=Umi De No Jisatsu
TTITLE3=Walk On The Moon
TTITLE4=Let Them Wait
TTITLE5=Taiyo
TTITLE6=It's Too Late
TTITLE7=End At The Beginning
TTITLE8=Asobi Masho
TTITLE9=Stay
TTITLE10=Before We Fall
EXTD=
EXTT0=
EXTT1=
EXTT2=
EXTT3=
EXTT4=
EXTT5=
EXTT6=
EXTT7=
EXTT8=
EXTT9=
EXTT10=
PLAYORDER=
